<svg width="15" height="31" xmlns="http://www.w3.org/2000/svg" xmlns:xlink="http://www.w3.org/1999/xlink" xmlns:svgjs="http://svgjs.com/svgjs" viewBox="0.265 0 14.469 31" fill="#3d58a6"><svg xmlns="http://www.w3.org/2000/svg" width="15" height="31" viewBox="0.534 0.285 14.003 30.001"><path paint-order="stroke fill markers" fill-rule="evenodd" d="M5.149 1.831C6.319.717 7.983.341 9.552.294c1.66-.015 3.32-.006 4.98-.005.006 1.751.007 3.503-.001 5.254-1.073-.001-2.146.003-3.22-.001-.68-.043-1.378.473-1.502 1.147-.016 1.172-.006 2.345-.005 3.516 1.574.007 3.147-.001 4.721.004-.116 1.696-.326 3.383-.572 5.064-1.39.013-2.781-.001-4.171.007-.012 5 .007 10-.01 15-2.064.008-4.13-.004-6.194.006-.04-5.001.003-10.004-.022-15.005-1.007-.011-2.015.007-3.022-.01.004-1.679.002-3.36.002-5.041 1.007-.012 2.014.003 3.02-.007.031-1.634-.03-3.27.032-4.903.1-1.293.594-2.596 1.56-3.489z"/></svg></svg>