<svg width="26" height="31" xmlns="http://www.w3.org/2000/svg" xmlns:xlink="http://www.w3.org/1999/xlink" xmlns:svgjs="http://svgjs.com/svgjs" viewBox="0.181 0 25.639 31" fill="#3d58a6"><svg xmlns="http://www.w3.org/2000/svg" width="26" height="31" viewBox="0.327 0.286 24.812 30"><path paint-order="stroke fill markers" fill-rule="evenodd" d="M25.139 21.647c0-2.662-.143-4.617-.43-5.865a3.085 3.085 0 0 0-.97-1.658 3.04 3.04 0 0 0-1.713-.778c-2.045-.226-5.143-.338-9.293-.338-4.136 0-7.226.112-9.271.338a3.01 3.01 0 0 0-1.726.778 3.12 3.12 0 0 0-.958 1.658C.477 17.09.327 19.045.327 21.647c0 2.646.15 4.601.45 5.864.15.647.47 1.196.959 1.647a2.96 2.96 0 0 0 1.703.789c2.061.226 5.158.339 9.294.339 4.135 0 7.233-.113 9.293-.339a2.958 2.958 0 0 0 1.703-.79c.489-.45.808-1 .959-1.646.3-1.263.45-3.218.45-5.864zm-1.85 2.503v.203c0 .436-.015.76-.045.97a2.13 2.13 0 0 1-.338.903c-.406.601-1.008.902-1.805.902-.782 0-1.391-.286-1.827-.857-.316-.406-.474-1.053-.474-1.94v-2.91c0-.887.151-1.534.45-1.94.438-.571 1.039-.857 1.806-.857.767 0 1.353.286 1.759.857.316.42.474 1.068.474 1.94v1.714h-3v1.467c0 .766.256 1.15.767 1.15.361 0 .586-.196.677-.587 0-.015.003-.067.01-.157.008-.091.012-.215.012-.373v-.485h1.534zm-15.88-8.255v1.579H5.605v9.54h-1.67v-9.54h-1.76v-1.579H7.41zm4.534 2.842v8.278h-1.511v-.902c-.587.676-1.158 1.015-1.714 1.015-.497 0-.812-.211-.948-.632-.09-.24-.135-.646-.135-1.218v-6.541h1.489v6.09c0 .36.007.556.022.587.015.225.128.338.339.338.3 0 .616-.233.947-.7v-6.315h1.51zm5.684 2.504v3.293c0 .782-.052 1.33-.157 1.646-.181.632-.58.948-1.196.948-.526 0-1.038-.308-1.534-.925v.812h-1.511v-11.12h1.51v3.63c.482-.6.994-.901 1.535-.901.617 0 1.015.316 1.196.947.105.316.157.873.157 1.67zm2.662.654h1.489v-.767c0-.767-.248-1.151-.745-1.151-.496 0-.744.384-.744 1.151v.767zM14.627 8.789V5.857c0-.872-.157-1.526-.473-1.962-.436-.572-1.023-.857-1.76-.857-.767 0-1.353.285-1.76.857-.315.436-.473 1.09-.473 1.962v2.932c0 .873.158 1.527.474 1.963.406.57.992.857 1.759.857.737 0 1.324-.286 1.76-.857.316-.406.473-1.06.473-1.963zm1.512 15.858v-3.542c0-.752-.218-1.128-.654-1.128-.256 0-.504.12-.745.361v5.053c.24.24.489.36.745.36.436 0 .654-.368.654-1.104zM8.109 6.962l2.03-6.676H8.447l-1.15 4.398L6.1.286H4.34l.542 1.556.519 1.557c.526 1.548.872 2.736 1.037 3.563v4.534h1.67V6.962zm5.007-1.398v3.519c0 .767-.24 1.15-.722 1.15-.481 0-.721-.383-.721-1.15V5.564c0-.782.24-1.173.721-1.173.482 0 .722.39.722 1.173zm5.594 5.932h1.51V3.15h-1.51v6.384c-.331.466-.647.699-.947.699-.226 0-.346-.12-.361-.361-.015-.03-.023-.225-.023-.586V3.15h-1.511v6.609c0 .557.045.97.135 1.24.166.407.489.61.97.61.542 0 1.12-.338 1.737-1.015v.902z"/></svg></svg>